<svg  xmlns="http://www.w3.org/2000/svg">

  <symbol  viewBox="0 0 35 35" id="surfboard">
    <path d="M34.5485 0.451516C34.3352 0.238139 34.0379 0.130367 33.7376 0.15814C33.6123 0.16952 30.6209 0.454022 26.5183 1.83108C13.1663 5.94322 4.32974 18.8899 0.220651 28.2558C-0.0379964 28.8743 0.484582 29.7021 1.26676 29.6337L5.80535 29.1922L5.36386 33.7304C5.31549 34.3828 5.94883 35.0699 6.74184 34.7764C23.0466 27.3472 32.9919 15.976 34.8419 1.26228C34.8694 0.961858 34.7619 0.664757 34.5485 0.451516ZM21.4105 22.7881C19.6089 24.4277 17.8329 25.8372 16.1913 27.0245V9.72113C17.9122 8.31082 19.6957 7.16773 21.4105 6.24486V22.7881ZM11.4936 30.0991C9.88016 31.0471 8.5183 31.7389 7.55511 32.1956L7.94776 28.1597C8.00602 27.6346 7.52022 26.9703 6.83797 27.05L2.8034 27.4424C4.16641 24.5507 7.83733 17.8176 14.159 11.5514V28.4322C13.1849 29.0781 12.286 29.6336 11.4936 30.0991ZM31.2232 7.89084C30.0298 11.4275 27.7123 16.5335 23.4428 20.8442V5.2325C26.2239 3.88932 30.4729 2.68533 32.6337 2.36608C32.4266 3.57955 32.0109 5.55616 31.2232 7.89084Z" />
  </symbol>

  <symbol viewBox="0 0 35 35" id="circularMachine">
    <path d="M33.8298 12.4181H26.5562C26.5569 12.4117 26.5579 12.4054 26.5586 12.3991C27.405 11.6708 28.0815 10.8061 28.5729 9.82357C28.7304 9.50849 28.7136 9.13433 28.5284 8.8347C28.3432 8.53501 28.016 8.3526 27.6638 8.3526H26.0949C25.7545 7.38962 25.2576 6.50036 24.6109 5.69742C24.6938 4.58516 24.5607 3.4969 24.2137 2.45599C24.1023 2.12181 23.8258 1.86914 23.483 1.78823C23.1401 1.70726 22.7799 1.80971 22.5308 2.05872L21.4191 3.17037C20.5006 2.73129 19.5227 2.45416 18.4992 2.34311C17.7321 1.43955 16.848 0.724357 15.9218 0.261161C15.6067 0.103623 15.2326 0.120427 14.9328 0.30561C14.6333 0.490794 14.4509 0.817932 14.4509 1.17021V2.80684C13.4879 3.14719 12.5986 3.6442 11.7957 4.29082C10.6836 4.20795 9.59509 4.3411 8.55439 4.68809C8.22021 4.79948 7.96754 5.07601 7.88663 5.4188C7.80573 5.76159 7.90804 6.12192 8.15712 6.37094L9.26857 7.48245C8.82922 8.40159 8.55195 9.38016 8.4411 10.4045C7.76013 10.9905 7.18933 11.665 6.73623 12.4182H1.17022C0.608905 12.4182 0.153839 12.8732 0.153839 13.4345V17.5001C0.153839 18.0614 0.608905 18.5164 1.17022 18.5164H2.25435V33.8298C2.25435 34.3911 2.70942 34.8462 3.27073 34.8462H7.33623C7.89754 34.8462 8.35261 34.3911 8.35261 33.8298V30.3847L17.5 26.7258L26.6474 30.3847V33.8298C26.6474 34.3911 27.1024 34.8461 27.6638 34.8461H31.7293C32.2906 34.8461 32.7456 34.3911 32.7456 33.8298V18.5164H33.8298C34.3911 18.5164 34.8461 18.0613 34.8461 17.5V13.4345C34.8461 12.8732 34.3911 12.4181 33.8298 12.4181ZM10.0399 11.7226C10.2717 11.5431 10.4147 11.2723 10.4322 10.9796C10.5 9.84511 10.8237 8.77921 11.3944 7.81155C11.6298 7.41232 11.5652 6.90433 11.2376 6.57658L10.9639 6.30291C11.3037 6.29247 11.6479 6.30921 11.9952 6.35318C12.286 6.39004 12.5787 6.29952 12.798 6.10471C13.6472 5.35029 14.631 4.82455 15.722 4.542C16.1704 4.426 16.4836 4.02141 16.4836 3.55822V3.15607C16.7255 3.39404 16.9585 3.65687 17.179 3.94173C17.3585 4.17353 17.6293 4.3165 17.922 4.33398C19.0564 4.40174 20.1223 4.72549 21.0901 5.29615C21.4894 5.53155 21.9973 5.46704 22.325 5.13936L22.5988 4.86562C22.6092 5.20542 22.5925 5.54971 22.5485 5.89697C22.5117 6.18785 22.6022 6.4805 22.797 6.69977C23.5514 7.54905 24.0772 8.53284 24.3597 9.62382C24.4758 10.0722 24.8804 10.3854 25.3436 10.3854H25.7272C25.4937 10.6338 25.2377 10.8659 24.9602 11.0808C24.7284 11.2603 24.5854 11.5311 24.5679 11.8238C24.556 12.023 24.5354 12.2214 24.5072 12.4182H20.3743C20.4871 12.1 20.5491 11.7581 20.5491 11.4018C20.5491 9.72051 19.1813 8.35267 17.5 8.35267C15.8187 8.35267 14.4509 9.72051 14.4509 11.4018C14.4509 11.7581 14.5129 12.1 14.6257 12.4182H9.27331C9.50687 12.1698 9.76239 11.9375 10.0399 11.7226ZM18.5164 11.4017C18.5164 11.9622 18.0604 12.4181 17.5 12.4181C16.9396 12.4181 16.4836 11.9622 16.4836 11.4017C16.4836 10.8413 16.9396 10.3854 17.5 10.3854C18.0604 10.3854 18.5164 10.8413 18.5164 11.4017ZM6.31985 32.8134H4.2871V18.5164H6.31985C6.31985 18.5094 6.31992 28.5516 6.31985 32.8134ZM8.35261 28.1953V23.0667L14.7633 25.631L8.35261 28.1953ZM26.6474 28.1953L20.2367 25.631L26.6474 23.0667V28.1953ZM26.6474 20.8774L17.5 24.5364L8.35261 20.8774V18.5164H26.6474V20.8774ZM30.7129 32.8134H28.6801C28.6801 31.0105 28.6801 20.6905 28.6801 18.5164H30.7129V32.8134ZM32.8134 16.4836H2.18659V14.4509H32.8134V16.4836Z"/>
  </symbol>

  <symbol viewBox="0 0 35 25" id="truck">
    <path d="M26.3553 15.9785C23.944 15.9785 21.9823 17.9402 21.9823 20.3515C21.9823 22.7628 23.944 24.7245 26.3553 24.7245C28.767 24.7245 30.7283 22.7628 30.7283 20.3515C30.7283 17.9402 28.7666 15.9785 26.3553 15.9785ZM26.3553 22.538C25.1494 22.538 24.1688 21.5573 24.1688 20.3515C24.1688 19.1456 25.1494 18.165 26.3553 18.165C27.5611 18.165 28.5418 19.1456 28.5418 20.3515C28.5418 21.5574 27.5611 22.538 26.3553 22.538Z"/>
    <path d="M11.4143 15.9785C9.00296 15.9785 7.04129 17.9402 7.04129 20.3515C7.04129 22.7628 9.00296 24.7245 11.4143 24.7245C13.8256 24.7245 15.7873 22.7628 15.7873 20.3515C15.7873 17.9402 13.8256 15.9785 11.4143 15.9785ZM11.4143 22.538C10.2084 22.538 9.22778 21.5573 9.22778 20.3515C9.22778 19.1456 10.2084 18.165 11.4143 18.165C12.6198 18.165 13.6008 19.1456 13.6008 20.3515C13.6008 21.5574 12.6201 22.538 11.4143 22.538Z"/>
    <path d="M29.3001 3.4616C29.1143 3.09245 28.7364 2.85956 28.3231 2.85956H22.5653V5.04606H27.6489L30.6258 10.9671L32.5798 9.98456L29.3001 3.4616Z"/>
    <path d="M23.0756 19.2947H14.8033V21.4812H23.0756V19.2947Z"/>
    <path d="M8.1345 19.2947H4.34464C3.74078 19.2947 3.25143 19.7841 3.25143 20.3879C3.25143 20.9918 3.74084 21.4811 4.34464 21.4811H8.13457C8.73843 21.4811 9.22779 20.9917 9.22779 20.3879C9.22779 19.7841 8.73837 19.2947 8.1345 19.2947Z"/>
    <path d="M34.6166 12.6113L32.4662 9.84173C32.2596 9.57497 31.9407 9.41898 31.6029 9.41898H23.6586V1.76628C23.6586 1.16242 23.1692 0.673065 22.5654 0.673065H4.34464C3.74078 0.673065 3.25143 1.16248 3.25143 1.76628C3.25143 2.37007 3.74084 2.85949 4.34464 2.85949H21.4721V10.5122C21.4721 11.1161 21.9616 11.6054 22.5653 11.6054H31.0675L32.6597 13.6563V19.2946H29.635C29.0311 19.2946 28.5418 19.784 28.5418 20.3878C28.5418 20.9917 29.0312 21.481 29.635 21.481H33.7529C34.3567 21.481 34.8461 20.9916 34.8462 20.3878V13.2818C34.8462 13.0391 34.7652 12.803 34.6166 12.6113Z"/>
    <path d="M8.06166 13.7556H3.0327C2.42884 13.7556 1.93949 14.245 1.93949 14.8488C1.93949 15.4527 2.42891 15.942 3.0327 15.942H8.06159C8.66546 15.942 9.15481 15.4526 9.15481 14.8488C9.15488 14.245 8.66546 13.7556 8.06166 13.7556Z"/>
    <path d="M10.5761 9.45544H1.24706C0.643266 9.45544 0.153847 9.94486 0.153847 10.5487C0.153847 11.1526 0.643266 11.6419 1.24706 11.6419H10.5761C11.18 11.6419 11.6693 11.1525 11.6693 10.5487C11.6693 9.94493 11.18 9.45544 10.5761 9.45544Z"/>
    <path d="M12.3617 5.15536H3.0327C2.42884 5.15536 1.93949 5.64478 1.93949 6.24857C1.93949 6.85244 2.42891 7.34179 3.0327 7.34179H12.3617C12.9656 7.34179 13.455 6.85237 13.455 6.24857C13.455 5.64478 12.9656 5.15536 12.3617 5.15536Z"/>
  </symbol>

  <symbol id="phone">
    <path d="M11.9741 9.29781C11.9401 9.19554 11.7242 9.04488 11.3264 8.84619C11.2186 8.78357 11.0651 8.69846 10.8664 8.59049C10.6675 8.48252 10.487 8.38303 10.3252 8.2921C10.163 8.20121 10.0111 8.11314 9.86919 8.02804C9.8465 8.01099 9.77548 7.96135 9.65617 7.87879C9.53674 7.79646 9.43602 7.73535 9.35348 7.6955C9.27112 7.65589 9.19011 7.63595 9.11055 7.63595C8.99694 7.63595 8.85503 7.71696 8.68464 7.87879C8.51425 8.04082 8.35795 8.21682 8.21598 8.40733C8.07398 8.59774 7.92339 8.77375 7.76446 8.93569C7.60529 9.09769 7.47452 9.17861 7.37237 9.17861C7.32108 9.17861 7.25714 9.16432 7.18052 9.13611C7.10392 9.10772 7.04565 9.08339 7.00565 9.06378C6.96601 9.04375 6.89798 9.00411 6.80132 8.94425C6.70448 8.88458 6.65063 8.8519 6.63929 8.84619C5.86093 8.41428 5.19337 7.91995 4.63651 7.36332C4.07982 6.80636 3.58543 6.13887 3.15363 5.36041C3.14796 5.34904 3.11521 5.29504 3.0556 5.1985C2.9959 5.10188 2.95611 5.03379 2.93623 4.99391C2.91635 4.95417 2.8922 4.89591 2.86384 4.81922C2.83548 4.74253 2.82124 4.67865 2.82124 4.62746C2.82124 4.52525 2.90223 4.3945 3.06417 4.23539C3.22608 4.07638 3.40226 3.92575 3.59253 3.78381C3.78295 3.64187 3.95895 3.48557 4.12092 3.31518C4.28283 3.1447 4.36379 3.00273 4.36379 2.88912C4.36379 2.80963 4.34391 2.72858 4.30418 2.64622C4.26441 2.56368 4.20334 2.46297 4.12092 2.34359C4.03847 2.22428 3.98877 2.15332 3.9717 2.13049C3.88656 1.98855 3.79859 1.83658 3.70758 1.67464C3.61656 1.51272 3.51722 1.33225 3.40922 1.13341C3.30131 0.934661 3.21614 0.781198 3.15357 0.673257C2.95483 0.275613 2.80429 0.0596122 2.70199 0.0256419C2.6622 0.00859706 2.6025 0 2.52303 0C2.36954 0 2.1693 0.0283583 1.92216 0.0852542C1.67494 0.14206 1.4804 0.201643 1.33834 0.26424C1.05425 0.383494 0.753144 0.730063 0.434934 1.30383C0.145171 1.8378 0.000305176 2.36631 0.000305176 2.88897C0.000305176 3.04225 0.0102455 3.19139 0.0301262 3.3364C0.0500069 3.48127 0.0855294 3.64465 0.136724 3.8265C0.187828 4.00829 0.229052 4.14333 0.260217 4.23127C0.291411 4.31928 0.34965 4.47692 0.434904 4.70426C0.520039 4.93155 0.571233 5.07068 0.588278 5.12182C0.787115 5.67866 1.02291 6.17576 1.29559 6.61329C1.74425 7.34051 2.35652 8.09207 3.13205 8.86766C3.90761 9.64318 4.65901 10.2554 5.3863 10.7043C5.82376 10.9769 6.32105 11.2127 6.8778 11.4117C6.92896 11.4286 7.0681 11.4797 7.29529 11.5651C7.52258 11.6503 7.68028 11.7086 7.76828 11.7398C7.85631 11.7711 7.99139 11.8124 8.17303 11.8636C8.35506 11.9147 8.51828 11.9503 8.66315 11.9703C8.80811 11.9899 8.95727 12 9.11059 12C9.63321 12 10.1618 11.8551 10.6958 11.5653C11.2695 11.2473 11.616 10.9461 11.7353 10.6618C11.7981 10.5199 11.8575 10.3253 11.9143 10.0781C11.9713 9.83095 11.9996 9.63074 11.9996 9.47727C11.9998 9.39748 11.9912 9.33793 11.9741 9.29781Z"/>
  </symbol>

  <symbol viewBox="0 0 68 68" id="feat_1">
    <path d="M53.8359 60.0312H47.8594V55.7812H50.5223C51.6225 55.7812 52.5145 54.8893 52.5145 53.7891C52.5145 52.6888 51.6225 51.7969 50.5223 51.7969H47.8594V47.8125H53.1785C54.2787 47.8125 55.1707 46.9205 55.1707 45.8203C55.1707 44.7201 54.2787 43.8281 53.1785 43.8281H47.8594V39.8438H50.5223C51.6225 39.8438 52.5145 38.9518 52.5145 37.8516C52.5145 36.7513 51.6225 35.8594 50.5223 35.8594H47.8594V31.875H53.1785C54.2787 31.875 55.1707 30.983 55.1707 29.8828C55.1707 28.7826 54.2787 27.8906 53.1785 27.8906H47.8594V23.9062H50.5223C51.6225 23.9062 52.5145 23.0143 52.5145 21.9141C52.5145 20.8138 51.6225 19.9219 50.5223 19.9219H47.8594V15.9375H53.1785C54.2787 15.9375 55.1707 15.0455 55.1707 13.9453C55.1707 12.8451 54.2787 11.9531 53.1785 11.9531H47.8594V7.96875H50.5223C51.6225 7.96875 52.5145 7.07678 52.5145 5.97656C52.5145 4.87634 51.6225 3.98438 50.5223 3.98438H47.8594V1.99219C47.8594 0.891969 46.9674 0 45.8672 0C44.767 0 43.875 0.891969 43.875 1.99219V60.0312H36.6821L37.7778 42.5H37.9051C39.0053 42.5 39.8973 41.608 39.8973 40.5078V27.2232C39.8973 22.8007 36.9982 19.0441 33.0014 17.7493C34.7475 16.7048 35.9195 14.7956 35.9195 12.6172C35.9195 9.32171 33.2384 6.64062 29.943 6.64062C26.6475 6.64062 23.9664 9.32171 23.9664 12.6172C23.9664 14.7946 25.1373 16.703 26.882 17.7479C22.8831 19.0415 19.982 22.7991 19.982 27.2232V40.5078C19.982 41.608 20.874 42.5 21.9742 42.5H22.0948L23.1905 60.0312H13.9922C12.892 60.0312 12 60.9232 12 62.0234V66.0078C12 67.108 12.892 68 13.9922 68C15.0924 68 15.9844 67.108 15.9844 66.0078V64.0156H51.8438V66.0078C51.8438 67.108 52.7357 68 53.8359 68C54.9362 68 55.8281 67.108 55.8281 66.0078V62.0234C55.8281 60.9232 54.9362 60.0312 53.8359 60.0312ZM29.943 10.625C31.0415 10.625 31.9352 11.5187 31.9352 12.6172C31.9352 13.7157 31.0415 14.6094 29.943 14.6094C28.8445 14.6094 27.9508 13.7157 27.9508 12.6172C27.9508 11.5187 28.8443 10.625 29.943 10.625ZM23.9664 27.2232C23.9664 23.9296 26.646 21.25 29.9398 21.25C33.2334 21.25 35.913 23.9296 35.913 27.2232V38.5156H23.9664V27.2232ZM26.0869 42.5H33.7856L32.6899 60.0312H27.1826L26.0869 42.5Z"/>
  </symbol>

  <symbol viewBox="0 0 68 68" id="feat_2">
    <path d="M35.875 32.1811V21.8166H40.025C49.9181 21.8166 57.9666 13.768 57.9666 3.875C57.9666 2.8395 57.1271 2 56.0916 2H50.0646C43.0369 2 36.9411 6.06275 33.9996 11.9622C31.0576 6.06262 24.9615 2 17.9334 2H11.9084C10.8729 2 10.0334 2.8395 10.0334 3.875C10.0334 13.7681 18.082 21.8166 27.975 21.8166H32.125V32.1811C15.3249 33.1521 2 47.0815 2 64.125C2 65.1605 2.8395 66 3.875 66H64.125C65.1605 66 66 65.1605 66 64.125C66 47.0815 52.6751 33.1521 35.875 32.1811ZM50.0646 5.75H54.0933C53.1726 12.692 47.2145 18.0666 40.025 18.0666H35.9981C36.9174 11.1243 42.8751 5.75 50.0646 5.75ZM27.975 18.0666C20.7854 18.0666 14.8272 12.692 13.9067 5.75H17.9334C25.123 5.75 31.0811 11.1246 32.0016 18.0666H27.975ZM5.8105 62.25C6.7385 47.9209 17.2449 40.245 24.0917 37.6657V42.3778C24.0917 42.9499 23.8689 43.4879 23.4641 43.8926L17.4391 49.9176C15.1423 52.2145 15.1423 55.9519 17.4391 58.2487L21.44 62.25H5.8105ZM26.7434 62.25L20.0906 55.5973C19.2543 54.7609 19.2534 53.4065 20.0906 52.5692L26.1156 46.5444C27.2288 45.4314 27.8417 43.9516 27.8417 42.3778V36.5489C29.8536 36.1014 31.9191 35.875 34 35.875C38.9144 35.875 43.6772 37.1336 47.9062 39.5337L37.5223 49.9178C35.2226 52.2174 35.2178 55.9449 37.5223 58.2489L41.5234 62.25H26.7434ZM46.8266 62.25L40.1739 55.5971C39.3382 54.7616 39.3371 53.4062 40.1739 52.5692L51.1001 41.6431C57.6121 46.6034 61.6477 54.1131 62.1879 62.2499H46.8266V62.25Z"/>
  </symbol>

    <symbol viewBox="0 0 68 68" id="feat_3">
    <path d="M67.58 64.7842C67.4752 64.6494 64.9503 61.4478 59.6006 58.2906C56.9903 56.75 53.3914 55.0512 48.7861 53.8092C49.7611 50.514 50.8711 45.7687 51.3499 40.1027C51.8914 33.6964 51.5072 27.4363 50.2076 21.4964C48.5791 14.0532 45.5041 7.10361 41.0679 0.840703C40.6944 0.313437 40.0884 0 39.4422 0C38.7961 0 38.1901 0.313305 37.8166 0.840703C36.4181 2.81509 35.155 4.85802 34.0297 6.96283C32.9044 4.85788 31.6415 2.81509 30.2428 0.840703C29.8694 0.313437 29.2633 0 28.6172 0C27.9711 0 27.3651 0.313305 26.9916 0.840703C22.5554 7.10348 19.4804 14.053 17.8518 21.4965C16.5523 27.4364 16.168 33.6964 16.7095 40.1029C17.2019 45.9283 18.3614 50.7807 19.3554 54.0843C15.1095 55.2884 11.6855 56.8436 9.12061 58.2632C3.46718 61.3926 0.622734 64.5502 0.504398 64.683C-0.0175553 65.2692 -0.146649 66.1072 0.174492 66.8232C0.495632 67.5391 1.20737 68 1.99216 68H66.0078C66.7688 68 67.4633 67.5664 67.7976 66.8828C68.1317 66.1992 68.0474 65.3849 67.58 64.7842ZM20.9628 26.9581L34.3264 17.8771C34.7222 19.1401 35.0719 20.4201 35.3722 21.7176L20.5296 31.8038C20.6034 30.2441 20.7425 28.6243 20.9628 26.9581ZM21.9738 21.4539C23.1906 16.3163 25.2642 10.9068 28.6188 5.57441C30.3273 8.279 31.7667 11.0904 32.9405 14.0015L21.9738 21.4539ZM20.4961 36.6438L36.179 25.9865C36.8241 30.3597 36.9548 34.9112 36.5666 39.6274C36.1538 44.6411 35.1975 48.9293 34.323 52.0159C30.2386 52.0394 26.5399 52.4701 23.2384 53.1424C22.2965 50.0504 21.1538 45.3767 20.6797 39.7673C20.5957 38.7749 20.5323 37.7314 20.4961 36.6438ZM34.6735 55.9971C45.4742 55.9971 52.9886 59.0514 57.3905 61.6136C58.8019 62.4352 59.9934 63.2602 60.9717 64.0156H7.43402C12.1776 60.6701 21.2129 55.9971 34.6735 55.9971ZM39.444 5.57441C45.7576 15.5693 48.4302 27.0098 47.3915 39.6274C46.9364 45.1541 45.8212 49.7995 44.8829 52.9247C42.8862 52.5547 40.7358 52.2795 38.4326 52.133C39.2726 48.9847 40.1222 44.8692 40.5251 40.1029C41.0665 33.6965 40.6823 27.4364 39.3827 21.4965C38.6317 18.0636 37.5721 14.7359 36.214 11.532C37.1285 9.54749 38.1975 7.55557 39.444 5.57441Z"/>
  </symbol>

  <symbol viewBox="0 0 24 24" id="facebook">
    <path d="M24 22.6921C24 23.4114 23.4114 24 22.6921 24H16.545V14.7139H19.6839L20.1417 11.1172H16.545V8.82834C16.545 7.78202 16.8065 7.06267 18.3106 7.06267H20.2071V3.79292C19.8801 3.72752 18.7684 3.66213 17.3951 3.66213C14.6485 3.66213 12.752 5.3624 12.752 8.43597V11.1172H9.61308V14.7139H12.752V24H1.3079C0.588556 24 0 23.4114 0 22.6921V1.3079C0 0.588556 0.588556 0 1.3079 0H22.6921C23.4114 0 24 0.588556 24 1.3079V22.6921Z"/>
  </symbol>

  <symbol viewBox="0 0 24 24" id="vk">
    <path d="M23.8692 17.5259C23.8692 17.4605 23.8038 17.3951 23.8038 17.3951C23.4114 16.6757 22.5613 15.6948 21.3842 14.6485C20.861 14.1253 20.5341 13.7983 20.4033 13.6022C20.1417 13.2752 20.0763 12.9482 20.2071 12.6212C20.3379 12.3597 20.6649 11.8365 21.3188 10.9864C21.6458 10.5286 21.9074 10.2016 22.1035 9.94004C23.5422 8.04358 24.1962 6.80108 24 6.27792L23.9346 6.14712C23.8692 5.95094 23.7384 5.88554 23.5422 5.82015C23.3461 5.75475 23.0845 5.75475 22.7575 5.82015H19.1608C19.0954 5.82015 19.03 5.82015 18.8992 5.82015C18.7684 5.82015 18.7684 5.88554 18.7684 5.88554H18.703L18.6376 5.95094C18.5722 5.95094 18.5722 6.01633 18.5068 6.08173C18.4414 6.14713 18.4414 6.21252 18.376 6.27792C17.9837 7.25884 17.5259 8.23977 17.0681 9.0899C16.7411 9.61306 16.4796 10.0708 16.218 10.4632C15.9564 10.8556 15.7602 11.1172 15.564 11.3133C15.3678 11.5095 15.2371 11.6403 15.1063 11.7711C14.9755 11.9019 14.8447 11.9019 14.7793 11.9019C14.7139 11.9019 14.6485 11.8365 14.5831 11.8365C14.4523 11.7711 14.3869 11.6403 14.3215 11.5095C14.2561 11.3787 14.1907 11.2479 14.1907 11.0518C14.1907 10.8556 14.1253 10.6594 14.1253 10.5286C14.1253 10.3978 14.1253 10.2016 14.1253 9.94004C14.1253 9.67846 14.1253 9.48227 14.1253 9.41688C14.1253 9.0899 14.1253 8.76293 14.1253 8.37056C14.1253 7.97819 14.1253 7.71661 14.1253 7.52042C14.1253 7.32424 14.1253 7.06266 14.1253 6.80108C14.1253 6.5395 14.1253 6.34331 14.0599 6.21252C14.0599 6.08173 13.9946 5.95094 13.9292 5.82015C13.8638 5.68936 13.7984 5.55857 13.6676 5.49317C13.5368 5.42778 13.406 5.36238 13.2752 5.29699C12.8174 5.1662 12.2943 5.1662 11.5749 5.1662C10.0055 5.1662 9.02452 5.23159 8.56676 5.49317C8.37057 5.55857 8.23978 5.68936 8.10899 5.88554C7.9782 6.08173 7.91281 6.14712 8.0436 6.21252C8.56676 6.27792 8.89373 6.4741 9.08992 6.73568L9.15531 6.86647C9.22071 6.99726 9.2861 7.19345 9.3515 7.45503C9.41689 7.71661 9.41689 8.04358 9.48229 8.37056C9.54768 8.95911 9.54768 9.48227 9.48229 9.94004C9.41689 10.3978 9.41689 10.7248 9.3515 10.921C9.2861 11.1825 9.2861 11.3787 9.15531 11.5095C9.08992 11.6403 9.02452 11.7711 9.02452 11.7711C9.02452 11.8365 8.95913 11.8365 8.95913 11.8365C8.82834 11.9019 8.76294 11.9019 8.63215 11.9019C8.50136 11.9019 8.37057 11.8365 8.23978 11.7057C8.0436 11.5749 7.91281 11.4441 7.71662 11.2479C7.52044 11.0518 7.32425 10.7902 7.12807 10.3978C6.93188 10.0054 6.6703 9.61306 6.40872 9.0899L6.21253 8.69753C6.08174 8.43595 5.88556 8.10898 5.68937 7.65121C5.49319 7.19345 5.297 6.80108 5.10082 6.34331C5.03542 6.21252 4.90463 6.08173 4.77384 5.95094H4.70845C4.64305 5.88554 4.57766 5.88554 4.51226 5.82015C4.44687 5.82015 4.31608 5.75475 4.25068 5.75475H0.850136C0.457766 5.75475 0.196185 5.88554 0.0653951 6.01633V6.08173C0 6.14713 0 6.21252 0 6.27792C0 6.34331 0 6.4741 0.0653951 6.60489C0.588556 7.782 1.11172 8.89372 1.70027 10.0054C2.28883 11.1172 2.81199 11.9673 3.20436 12.6212C3.66213 13.2752 4.0545 13.9291 4.51226 14.5177C4.97003 15.1063 5.23161 15.4986 5.42779 15.6294C5.55858 15.8256 5.68937 15.891 5.75477 16.0218L6.08174 16.3488C6.27793 16.5449 6.60491 16.8065 6.93188 17.0681C7.32425 17.3297 7.71662 17.5913 8.23978 17.9182C8.69755 18.1798 9.2861 18.4414 9.87466 18.5722C10.5286 18.7684 11.1172 18.8338 11.7057 18.7684H13.1444C13.406 18.7684 13.6676 18.6376 13.7984 18.5068L13.8638 18.4414C13.9292 18.376 13.9292 18.3106 13.9292 18.1798C13.9292 18.049 13.9946 17.9836 13.9946 17.8528C13.9946 17.5259 13.9946 17.1989 14.0599 16.8719C14.1253 16.6103 14.1907 16.3488 14.2561 16.218C14.3215 16.0872 14.4523 15.9564 14.5177 15.8256C14.6485 15.6948 14.7139 15.6948 14.7139 15.6294C14.7793 15.6294 14.7793 15.564 14.8447 15.564C15.0409 15.4986 15.3025 15.564 15.564 15.7602C15.8256 15.9564 16.0872 16.218 16.3488 16.4795C16.6104 16.7411 16.8719 17.0681 17.1989 17.4605C17.5259 17.7875 17.8529 18.1144 18.049 18.2452L18.3106 18.376C18.5068 18.5068 18.703 18.5722 18.9646 18.6376C19.2262 18.703 19.4877 18.7684 19.6839 18.703L22.8883 18.6376C23.2153 18.6376 23.4768 18.5722 23.6076 18.5068C23.8038 18.376 23.8692 18.3106 23.9346 18.1798C24 18.049 24 17.9182 23.9346 17.7221C23.9346 17.7221 23.9346 17.5913 23.8692 17.5259Z"/>
  </symbol>

  <symbol viewBox="0 0 24 24" id="instagram">
    <path d="M21.1226 0H2.87738C1.3079 0 0 1.24251 0 2.81199V21.188C0 22.7575 1.3079 24 2.87738 24H21.1226C22.6921 24 24 22.7575 24 21.188V2.81199C24 1.24251 22.6921 0 21.1226 0ZM17.2643 3.72752C17.2643 3.33515 17.5913 3.00817 17.9837 3.00817H20.2725C20.6649 3.00817 20.9918 3.33515 20.9918 3.72752V5.95095C20.9918 6.34332 20.6649 6.6703 20.2725 6.6703H18.049C17.6567 6.6703 17.3297 6.34332 17.3297 5.95095L17.2643 3.72752ZM12.0327 7.38965C14.5831 7.38965 16.6757 9.41689 16.6757 11.9673C16.6757 14.5177 14.5831 16.545 12.0327 16.545C9.48229 16.545 7.38965 14.5177 7.38965 11.9673C7.38965 9.48229 9.48229 7.38965 12.0327 7.38965ZM21.7112 20.9918C21.7112 21.3842 21.3842 21.7112 20.9918 21.7112H3.00817C2.6158 21.7112 2.28883 21.3842 2.28883 20.9918V9.74387H5.23161C4.83924 10.3324 4.70845 11.3787 4.70845 12.0327C4.70845 16.0218 7.9782 19.2916 12.0327 19.2916C16.0872 19.2916 19.3569 16.0218 19.3569 12.0327C19.3569 11.3787 19.2916 10.3324 18.7684 9.74387H21.7766L21.7112 20.9918Z"/>
  </symbol>

  <symbol viewBox="0 0 24 24" id="twitter">
    <path d="M23.346 2.41963C22.3651 3.00818 21.3188 3.40055 20.2071 3.66213C19.2916 2.68121 18.049 2.09265 16.6104 2.09265C13.8638 2.09265 11.7057 4.38148 11.7057 7.12807C11.7057 7.52044 11.7711 7.91281 11.8365 8.30519C7.71662 8.0436 4.11989 6.01636 1.70027 2.94279C1.3079 3.66213 1.04632 4.57766 1.04632 5.4932C1.04632 7.25886 1.89646 8.76295 3.26975 9.67848C2.48501 9.67848 1.70027 9.4169 1.04632 9.02453V9.15532C1.04632 11.5749 2.74659 13.6676 4.97003 14.1253C4.57766 14.2561 4.11989 14.3215 3.66213 14.3215C3.33515 14.3215 3.00817 14.3215 2.74659 14.2561C3.40054 16.2834 5.16621 17.7221 7.32425 17.7875C5.62398 19.1608 3.53133 19.9455 1.17711 19.9455C0.784741 19.9455 0.392371 19.9455 0 19.8801C2.15804 21.3188 4.77384 22.1689 7.52044 22.1689C16.6104 22.1689 21.515 14.4523 21.515 7.78202C21.515 7.58584 21.515 7.32426 21.515 7.12807C22.4959 6.40873 23.346 5.55859 24 4.51227C23.1499 4.90464 22.1689 5.16622 21.188 5.29701C22.1689 4.57767 22.9537 3.59674 23.346 2.41963Z"/>
  </symbol>

</svg>


